<svg xmlns="http://www.w3.org/2000/svg" xmlns:xlink="http://www.w3.org/1999/xlink" width="1080" zoomAndPan="magnify" viewBox="0 0 810 809.999993" height="1080" preserveAspectRatio="xMidYMid meet" version="1.0"><defs><g/><clipPath id="ba6bbab84e"><path d="M 244.351562 249 L 395 249 L 395 567 L 244.351562 567 Z M 244.351562 249 " clip-rule="nonzero"/></clipPath></defs><g clip-path="url(#ba6bbab84e)"><path fill="#000000" d="M 381.40625 262.039062 C 377.339844 257.96875 372.597656 254.777344 367.324219 252.542969 C 361.859375 250.230469 356.054688 249.058594 350.074219 249.058594 C 344.09375 249.058594 338.292969 250.234375 332.828125 252.542969 C 327.550781 254.777344 322.8125 257.96875 318.746094 262.039062 C 314.675781 266.105469 311.484375 270.84375 309.25 276.121094 C 306.9375 281.585938 305.765625 287.386719 305.765625 293.367188 C 305.765625 293.441406 305.769531 293.515625 305.769531 293.59375 C 305.433594 293.726562 305.097656 293.859375 304.769531 294.003906 C 299.554688 296.207031 294.871094 299.363281 290.851562 303.382812 C 286.832031 307.402344 283.675781 312.082031 281.472656 317.296875 C 279.1875 322.695312 278.03125 328.429688 278.03125 334.339844 C 278.03125 337.066406 278.28125 339.761719 278.769531 342.398438 C 274.441406 344.265625 270.355469 346.664062 266.597656 349.558594 C 262.082031 353.03125 258.121094 357.148438 254.828125 361.792969 C 247.980469 371.441406 244.363281 382.8125 244.363281 394.683594 C 244.363281 406.121094 247.703125 417.039062 254.042969 426.433594 C 247.921875 434.113281 244.363281 443.789062 244.363281 454.074219 C 244.363281 460.054688 245.539062 465.855469 247.847656 471.320312 C 250.082031 476.597656 253.273438 481.335938 257.34375 485.402344 C 260.9375 488.996094 265.050781 491.90625 269.601562 494.074219 C 269.152344 496.621094 268.925781 499.214844 268.925781 501.816406 C 268.925781 507.8125 270.101562 513.628906 272.417969 519.105469 C 274.65625 524.394531 277.855469 529.144531 281.933594 533.222656 C 286.011719 537.300781 290.761719 540.503906 296.050781 542.742188 C 301.527344 545.058594 307.347656 546.230469 313.339844 546.230469 C 314.230469 546.230469 315.121094 546.203125 316.007812 546.152344 C 317.765625 549.0625 319.890625 551.785156 322.359375 554.253906 C 330.328125 562.222656 340.921875 566.609375 352.191406 566.609375 C 363.460938 566.609375 374.058594 562.222656 382.027344 554.253906 C 389.996094 546.285156 394.382812 535.6875 394.382812 524.417969 L 394.382812 293.367188 C 394.382812 287.386719 393.210938 281.585938 390.902344 276.121094 C 388.667969 270.84375 385.472656 266.105469 381.40625 262.039062 Z M 387.492188 366.894531 L 387.492188 370.742188 C 387.492188 380.75 379.351562 388.890625 369.34375 388.890625 C 360.066406 388.890625 352.394531 381.894531 351.324219 372.898438 C 352.214844 372.457031 353.082031 371.960938 353.925781 371.410156 C 359.410156 367.824219 363.167969 362.3125 364.507812 355.898438 C 365.851562 349.484375 364.613281 342.929688 361.023438 337.445312 C 359.980469 335.851562 357.847656 335.40625 356.253906 336.449219 C 354.664062 337.492188 354.21875 339.625 355.257812 341.21875 C 360.585938 349.359375 358.296875 360.316406 350.152344 365.644531 C 347.179688 367.589844 343.832031 368.519531 340.519531 368.519531 C 334.761719 368.519531 329.109375 365.710938 325.726562 360.539062 C 324.683594 358.949219 322.550781 358.503906 320.957031 359.542969 C 319.363281 360.585938 318.917969 362.722656 319.960938 364.3125 C 323.546875 369.796875 329.058594 373.554688 335.472656 374.894531 C 337.160156 375.25 338.855469 375.421875 340.542969 375.421875 C 341.933594 375.421875 343.316406 375.304688 344.679688 375.066406 C 346.738281 386.820312 357.015625 395.78125 369.34375 395.78125 C 376.480469 395.78125 382.929688 392.78125 387.492188 387.972656 L 387.492188 468.097656 C 386.652344 467.019531 385.738281 465.984375 384.757812 465 C 378.550781 458.792969 370.296875 455.371094 361.515625 455.371094 C 358.117188 455.371094 354.796875 455.886719 351.640625 456.875 C 348.878906 454.207031 346.9375 450.75 346.113281 446.96875 C 343.8125 436.421875 350.519531 425.96875 361.0625 423.664062 C 362.921875 423.261719 364.101562 421.425781 363.695312 419.566406 C 363.289062 417.707031 361.453125 416.527344 359.59375 416.933594 C 345.335938 420.046875 336.269531 434.179688 339.382812 448.433594 C 340.300781 452.640625 342.242188 456.554688 344.980469 459.820312 C 342.5625 461.230469 340.308594 462.964844 338.273438 465 C 332.066406 471.207031 328.648438 479.460938 328.648438 488.238281 C 328.648438 490.140625 330.191406 491.683594 332.09375 491.683594 C 333.996094 491.683594 335.539062 490.140625 335.539062 488.238281 C 335.539062 473.914062 347.191406 462.261719 361.515625 462.261719 C 375.839844 462.261719 387.492188 473.914062 387.492188 488.238281 L 387.492188 524.417969 C 387.492188 543.882812 371.660156 559.71875 352.191406 559.71875 C 332.726562 559.71875 316.890625 543.882812 316.890625 524.417969 C 316.890625 522.515625 315.347656 520.972656 313.445312 520.972656 C 311.542969 520.972656 310 522.515625 310 524.417969 C 310 529.597656 310.929688 534.628906 312.703125 539.332031 C 292.304688 538.992188 275.816406 522.292969 275.816406 501.816406 C 275.816406 500.0625 275.9375 498.316406 276.175781 496.589844 C 280.210938 497.777344 284.398438 498.378906 288.671875 498.378906 C 290.578125 498.378906 292.117188 496.835938 292.117188 494.933594 C 292.117188 493.03125 290.578125 491.488281 288.671875 491.488281 C 268.039062 491.488281 251.253906 474.703125 251.253906 454.070312 C 251.253906 444.613281 254.816406 435.765625 260.855469 429.039062 C 260.910156 428.984375 260.960938 428.925781 261.011719 428.867188 C 265.125 424.34375 270.371094 420.800781 276.410156 418.707031 C 278.707031 417.910156 281.070312 417.34375 283.472656 417.007812 C 282.863281 419.621094 282.648438 422.335938 282.859375 425.085938 C 283.394531 432.132812 286.644531 438.550781 292.011719 443.15625 C 292.660156 443.714844 293.457031 443.988281 294.25 443.988281 C 295.222656 443.988281 296.1875 443.578125 296.867188 442.785156 C 298.105469 441.339844 297.941406 439.167969 296.496094 437.929688 C 292.527344 434.523438 290.125 429.777344 289.726562 424.5625 C 289.492188 421.457031 289.984375 418.40625 291.140625 415.609375 C 291.652344 415.085938 291.996094 414.402344 292.089844 413.636719 C 292.734375 412.472656 293.503906 411.359375 294.394531 410.324219 C 301.421875 402.132812 313.808594 401.191406 322 408.222656 C 323.441406 409.460938 325.617188 409.292969 326.855469 407.851562 C 328.09375 406.40625 327.929688 404.230469 326.484375 402.992188 C 315.410156 393.488281 298.671875 394.765625 289.164062 405.835938 C 288.089844 407.089844 287.144531 408.425781 286.332031 409.824219 C 282.164062 410.042969 278.078125 410.835938 274.152344 412.195312 C 268.382812 414.199219 263.226562 417.316406 258.890625 421.257812 C 253.882812 413.308594 251.253906 404.199219 251.253906 394.679688 C 251.253906 375.042969 262.902344 357.175781 280.589844 349.128906 C 281.875 352.707031 283.632812 356.128906 285.84375 359.304688 C 286.511719 360.265625 287.585938 360.78125 288.675781 360.78125 C 289.351562 360.78125 290.039062 360.582031 290.636719 360.164062 C 292.199219 359.078125 292.585938 356.933594 291.5 355.371094 C 289.007812 351.785156 287.199219 347.839844 286.113281 343.683594 C 286.105469 343.65625 286.101562 343.632812 286.09375 343.609375 C 285.316406 340.609375 284.921875 337.5 284.921875 334.335938 C 284.921875 318.085938 295.480469 304.257812 310.101562 299.355469 C 310.28125 299.3125 310.453125 299.253906 310.621094 299.183594 C 314.152344 298.058594 317.910156 297.445312 321.808594 297.445312 C 325 297.445312 328.164062 297.855469 331.21875 298.65625 C 333.058594 299.140625 334.941406 298.039062 335.425781 296.203125 C 335.910156 294.359375 334.808594 292.476562 332.96875 291.992188 C 329.34375 291.039062 325.589844 290.558594 321.808594 290.558594 C 318.71875 290.558594 315.675781 290.878906 312.703125 291.507812 C 313.675781 271.734375 330.066406 255.949219 350.074219 255.949219 C 370.707031 255.949219 387.492188 272.734375 387.492188 293.367188 Z M 387.492188 366.894531 " fill-opacity="1" fill-rule="nonzero"/></g><path fill="#000000" d="M 519.632812 452.375 C 522.6875 451.78125 525.175781 450.546875 527.054688 448.683594 C 527.058594 448.679688 527.0625 448.675781 527.066406 448.671875 C 530.648438 445.109375 531.605469 439.730469 529.917969 432.679688 C 528.25 425.710938 524.992188 421.429688 520.238281 419.945312 C 517.535156 419.105469 514.539062 419.242188 511.296875 420.347656 C 511.789062 417.558594 511.5625 414.980469 510.609375 412.742188 C 508.535156 407.847656 503.367188 404.867188 495.25 403.890625 C 488.441406 403.070312 483.4375 404.21875 480.328125 407.300781 C 479.875 407.746094 479.464844 408.234375 479.09375 408.761719 C 477.460938 411.089844 476.75 414.023438 476.964844 417.515625 C 474.46875 416.285156 471.976562 415.78125 469.601562 416.046875 C 466.890625 416.347656 464.441406 417.585938 462.269531 419.742188 C 460.261719 421.730469 458.492188 424.503906 456.972656 428.042969 C 453.875 435.269531 453.90625 440.984375 457.074219 445.03125 C 458.910156 447.375 461.65625 448.960938 465.265625 449.769531 C 463.210938 452.019531 461.921875 454.472656 461.476562 457.015625 C 460.605469 462 462.835938 466.964844 468.105469 471.773438 C 473.203125 476.421875 478.148438 478.066406 482.804688 476.652344 C 485.683594 475.78125 488.222656 473.789062 490.382812 470.714844 C 491.742188 473.824219 493.671875 476.070312 496.136719 477.421875 C 500.71875 479.9375 506.507812 479.003906 513.335938 474.65625 C 520.164062 470.304688 523.457031 465.457031 523.121094 460.242188 C 522.941406 457.5 521.773438 454.867188 519.632812 452.375 Z M 507.476562 451.785156 C 509.660156 452.816406 515.941406 456.667969 516.195312 460.695312 C 516.390625 463.804688 512.71875 466.816406 509.605469 468.800781 C 506.496094 470.78125 502.210938 472.832031 499.476562 471.339844 C 495.933594 469.410156 495.101562 462.085938 495.089844 459.679688 C 495.085938 457.925781 493.777344 456.449219 492.035156 456.238281 C 490.292969 456.027344 488.671875 457.148438 488.25 458.851562 C 487.476562 461.988281 484.632812 468.84375 480.789062 470.011719 C 478.640625 470.664062 475.945312 469.53125 472.78125 466.648438 C 469.382812 463.546875 467.878906 460.714844 468.308594 458.222656 C 469.027344 454.054688 474.898438 450.734375 477.09375 449.8125 C 478.722656 449.136719 479.582031 447.351562 479.101562 445.65625 C 478.617188 443.960938 476.941406 442.898438 475.203125 443.183594 C 472.089844 443.695312 464.898438 443.769531 462.539062 440.753906 C 460.6875 438.390625 461.957031 434.023438 463.351562 430.777344 C 464.796875 427.40625 467.191406 423.304688 470.367188 422.945312 C 474.359375 422.488281 479.140625 427.679688 480.496094 429.527344 C 481.554688 430.988281 483.558594 431.390625 485.101562 430.449219 C 485.339844 430.304688 485.554688 430.136719 485.746094 429.949219 C 486.789062 428.914062 487.085938 427.296875 486.402344 425.929688 C 486.390625 425.90625 485.152344 423.417969 484.414062 420.367188 C 483.585938 416.960938 483.714844 414.253906 484.78125 412.742188 C 486.457031 410.363281 490.949219 410.359375 494.421875 410.78125 C 498.179688 411.234375 502.929688 412.40625 504.222656 415.4375 C 505.773438 419.074219 502.363281 424.902344 501.050781 426.652344 C 499.96875 428.074219 500.148438 430.085938 501.464844 431.296875 C 502.78125 432.507812 504.800781 432.523438 506.132812 431.328125 C 507.957031 429.6875 514.089844 425.296875 518.171875 426.570312 C 520.429688 427.273438 522.113281 429.871094 523.171875 434.292969 C 524.253906 438.824219 523.921875 442.003906 522.183594 443.742188 C 522.179688 443.746094 522.175781 443.75 522.171875 443.753906 C 519.1875 446.710938 512.042969 445.820312 509.78125 445.273438 C 508.050781 444.851562 506.285156 445.804688 505.6875 447.484375 C 505.09375 449.164062 505.867188 451.023438 507.476562 451.785156 Z M 507.476562 451.785156 " fill-opacity="1" fill-rule="nonzero"/><path fill="#000000" d="M 488.09375 435.144531 C 487.554688 435.488281 487.066406 435.882812 486.632812 436.3125 C 483.773438 439.148438 483.167969 443.695312 485.414062 447.222656 C 486.667969 449.195312 488.617188 450.558594 490.898438 451.0625 C 493.179688 451.570312 495.519531 451.15625 497.492188 449.902344 C 499.464844 448.648438 500.828125 446.699219 501.332031 444.417969 C 501.839844 442.136719 501.429688 439.796875 500.171875 437.824219 C 497.582031 433.757812 492.164062 432.554688 488.09375 435.144531 Z M 488.09375 435.144531 " fill-opacity="1" fill-rule="nonzero"/><path fill="#000000" d="M 455.722656 455.34375 C 457.578125 454.871094 458.699219 452.980469 458.222656 451.125 C 457.75 449.265625 455.859375 448.148438 454 448.621094 C 438.429688 452.609375 414.621094 446.003906 403.738281 437.433594 C 402.347656 436.339844 400.378906 436.476562 399.152344 437.695312 C 399.050781 437.792969 398.957031 437.902344 398.867188 438.015625 C 397.679688 439.519531 397.941406 441.703125 399.445312 442.886719 C 405.585938 447.722656 414.957031 451.933594 425.160156 454.441406 C 436.375 457.195312 447.226562 457.519531 455.722656 455.34375 Z M 455.722656 455.34375 " fill-opacity="1" fill-rule="nonzero"/><path fill="#000000" d="M 444.226562 497.332031 C 445.011719 496.832031 445.566406 496.035156 445.757812 495.125 C 445.867188 494.601562 448.382812 482.246094 442.1875 472.515625 C 435.992188 462.789062 423.730469 459.835938 423.210938 459.714844 C 422.304688 459.503906 421.347656 459.667969 420.5625 460.167969 C 420.351562 460.304688 420.15625 460.460938 419.984375 460.632812 C 419.503906 461.105469 419.171875 461.710938 419.03125 462.378906 C 418.921875 462.902344 416.40625 475.257812 422.605469 484.988281 C 428.800781 494.714844 441.058594 497.667969 441.578125 497.785156 C 442.484375 497.996094 443.441406 497.835938 444.226562 497.332031 Z M 439.382812 489.730469 C 436.042969 488.332031 431.273438 485.691406 428.453125 481.257812 C 425.632812 476.828125 425.257812 471.386719 425.402344 467.773438 C 428.742188 469.171875 433.511719 471.8125 436.332031 476.242188 C 439.152344 480.671875 439.53125 486.113281 439.382812 489.730469 Z M 439.382812 489.730469 " fill-opacity="1" fill-rule="nonzero"/><path fill="#000000" d="M 498.507812 517.507812 C 498.234375 517.675781 497.984375 517.863281 497.746094 518.0625 C 482.808594 512.757812 468.074219 515.796875 463.476562 516.992188 C 455.648438 510.871094 445.980469 504.644531 434.921875 500.175781 C 433.59375 499.636719 432.132812 499.980469 431.175781 500.929688 C 430.851562 501.25 430.585938 501.640625 430.402344 502.089844 C 429.683594 503.867188 430.542969 505.890625 432.316406 506.609375 C 436.183594 508.171875 439.871094 509.96875 443.363281 511.90625 C 441.960938 516.835938 439.640625 528.433594 443.972656 541.074219 C 443.460938 541.707031 443.070312 542.4375 442.828125 543.242188 C 442.339844 544.875 442.511719 546.605469 443.320312 548.109375 C 444.128906 549.613281 445.476562 550.710938 447.109375 551.203125 C 448.746094 551.691406 450.472656 551.519531 451.976562 550.710938 C 455.078125 549.042969 456.246094 545.160156 454.578125 542.054688 C 453.769531 540.550781 452.425781 539.453125 450.789062 538.960938 C 450.714844 538.9375 450.640625 538.917969 450.5625 538.898438 C 448.148438 531.878906 448.203125 525.207031 448.703125 520.730469 C 448.925781 518.746094 449.253906 517.011719 449.578125 515.617188 C 457.472656 520.679688 464.097656 526.253906 469.132812 531.015625 C 468.714844 533.492188 466.691406 546.890625 470.058594 556.289062 C 469.246094 557.546875 468.898438 559.03125 469.085938 560.535156 C 469.292969 562.230469 470.148438 563.742188 471.496094 564.792969 C 472.839844 565.84375 474.515625 566.308594 476.210938 566.097656 C 477.902344 565.886719 479.414062 565.03125 480.464844 563.6875 C 481.515625 562.339844 481.976562 560.667969 481.769531 558.972656 C 481.5625 557.277344 480.703125 555.769531 479.359375 554.71875 C 478.472656 554.023438 477.457031 553.605469 476.417969 553.445312 C 474.871094 548.710938 474.925781 542.167969 475.339844 537.265625 C 482.472656 544.902344 487.363281 551.871094 490.054688 556.804688 C 489.625 557.4375 489.308594 558.152344 489.128906 558.921875 C 488.734375 560.582031 489.015625 562.296875 489.910156 563.75 C 490.808594 565.199219 492.21875 566.214844 493.878906 566.605469 C 495.542969 567 497.253906 566.71875 498.707031 565.820312 C 500.160156 564.925781 501.171875 563.515625 501.566406 561.855469 C 501.957031 560.191406 501.679688 558.476562 500.78125 557.027344 C 499.789062 555.425781 498.199219 554.414062 496.476562 554.101562 C 492.339844 546.261719 484.507812 536.300781 475.527344 527.539062 C 473.957031 526.007812 472.214844 524.375 470.308594 522.6875 C 471.65625 522.480469 473.183594 522.292969 474.847656 522.164062 C 480.175781 521.753906 487.96875 521.902344 495.722656 524.710938 C 495.882812 525.261719 496.113281 525.796875 496.429688 526.308594 C 497.328125 527.757812 498.738281 528.773438 500.398438 529.167969 C 502.058594 529.558594 503.773438 529.277344 505.226562 528.382812 C 506.675781 527.484375 507.691406 526.074219 508.085938 524.414062 C 508.476562 522.753906 508.195312 521.039062 507.300781 519.585938 C 505.449219 516.585938 501.503906 515.65625 498.507812 517.507812 Z M 498.507812 517.507812 " fill-opacity="1" fill-rule="nonzero"/><path fill="#000000" d="M 431.117188 335.296875 C 431.859375 335.863281 432.796875 336.105469 433.71875 335.972656 C 434.640625 335.835938 435.472656 335.335938 436.023438 334.582031 C 436.375 334.101562 444.644531 322.59375 442.78125 309.792969 C 440.917969 296.988281 429.714844 288.316406 429.238281 287.957031 C 428.496094 287.390625 427.558594 287.148438 426.636719 287.28125 C 425.898438 287.386719 425.21875 287.730469 424.691406 288.25 C 424.5625 288.378906 424.441406 288.519531 424.332031 288.667969 C 423.980469 289.152344 415.710938 300.65625 417.574219 313.457031 C 419.4375 326.261719 430.640625 334.933594 431.117188 335.296875 Z M 427.925781 296.140625 C 430.824219 299.136719 434.988281 304.414062 435.914062 310.789062 C 436.84375 317.164062 434.355469 323.414062 432.433594 327.109375 C 429.53125 324.113281 425.371094 318.835938 424.441406 312.457031 C 423.515625 306.085938 426 299.835938 427.925781 296.140625 Z M 427.925781 296.140625 " fill-opacity="1" fill-rule="nonzero"/><path fill="#000000" d="M 410.351562 366.976562 C 418.476562 363.898438 432.890625 355.136719 446.753906 340.589844 C 457.089844 329.738281 470.070312 312.453125 473.664062 291.367188 C 481.066406 290.65625 485.664062 286.191406 487.742188 283.609375 C 489.179688 283.65625 491.238281 283.65625 493.449219 283.449219 C 499.527344 282.878906 503.671875 281.035156 505.765625 277.964844 C 507.167969 275.910156 508.285156 272.355469 505.640625 267.085938 C 503.246094 262.304688 499.839844 259.273438 495.519531 258.078125 C 493.835938 257.609375 492.160156 257.476562 490.574219 257.554688 C 490.902344 256.222656 490.96875 254.804688 490.621094 253.351562 C 490.078125 251.113281 488.65625 249.207031 486.386719 247.6875 C 484.226562 246.242188 481.328125 245.152344 477.527344 244.355469 C 471.039062 243 466.316406 243.746094 463.46875 246.570312 C 463.207031 246.828125 462.960938 247.101562 462.734375 247.394531 C 461.328125 249.195312 460.789062 251.34375 460.730469 253.476562 C 456.65625 251.886719 450.777344 251.398438 443.898438 256.179688 C 443.058594 256.761719 442.351562 257.351562 441.757812 257.941406 C 439.050781 260.621094 438.722656 263.273438 439.007812 265.167969 C 439.566406 268.882812 442.78125 272.191406 448.828125 275.289062 C 451.058594 276.429688 453.234375 277.3125 454.726562 277.871094 C 455.097656 279.234375 455.742188 281.082031 456.828125 282.984375 C 459.152344 287.0625 462.53125 289.742188 466.707031 290.859375 C 463.25 309.929688 451.289062 325.773438 441.730469 335.804688 C 429.507812 348.632812 415.925781 357.445312 407.890625 360.492188 C 406.097656 361.171875 405.195312 363.175781 405.875 364.96875 C 406.554688 366.753906 408.558594 367.65625 410.351562 366.976562 Z M 457.542969 271.507812 C 456.246094 271.035156 454.085938 270.1875 451.917969 269.070312 C 447.378906 266.734375 445.980469 264.867188 445.871094 264.132812 C 445.8125 263.738281 446.40625 262.886719 447.859375 261.875 C 451.808594 259.128906 455.410156 258.589844 458.871094 260.222656 C 461.558594 261.492188 463.207031 263.65625 463.324219 263.8125 C 464.351562 265.296875 466.339844 265.726562 467.90625 264.816406 C 469.472656 263.90625 470.0625 261.925781 469.277344 260.292969 C 468.03125 257.6875 466.96875 253.238281 468.203125 251.667969 C 469.121094 250.5 472.078125 250.304688 476.105469 251.148438 C 481.414062 252.257812 483.601562 253.855469 483.875 254.976562 C 484.257812 256.539062 481.894531 259.515625 480.121094 260.964844 C 478.683594 262.125 478.394531 264.21875 479.476562 265.710938 C 480.558594 267.207031 482.601562 267.601562 484.148438 266.601562 C 484.199219 266.570312 489.195312 263.503906 493.699219 264.769531 C 496.066406 265.4375 497.945312 267.210938 499.4375 270.191406 C 500.0625 271.4375 500.671875 273.117188 500.03125 274.054688 C 498.605469 276.15625 492.355469 276.878906 487.679688 276.671875 C 486.339844 275.28125 483.8125 273.035156 480.128906 271.304688 C 475.269531 269.019531 467.480469 267.277344 457.542969 271.507812 Z M 461.808594 277.289062 C 471.6875 273.742188 478.382812 277.714844 481.429688 280.304688 C 479.527344 282.269531 475.898438 284.90625 470.394531 284.472656 C 465.136719 284.058594 462.796875 280.027344 461.808594 277.289062 Z M 461.808594 277.289062 " fill-opacity="1" fill-rule="nonzero"/><path fill="#000000" d="M 501.3125 322.792969 C 499.042969 322.554688 497.15625 323.863281 495.855469 325.15625 C 495.089844 325.917969 494.523438 326.671875 494.199219 327.101562 C 492.839844 328.921875 491.355469 331.445312 489.796875 334.59375 C 487.222656 339.796875 485.285156 344.96875 485.203125 345.1875 C 484.535156 346.980469 485.445312 348.980469 487.242188 349.652344 C 489.039062 350.320312 491.035156 349.410156 491.707031 347.613281 C 491.722656 347.570312 493.300781 343.351562 495.429688 338.878906 C 498.566406 332.296875 500.417969 330.328125 501.058594 329.789062 C 501.144531 329.820312 501.214844 329.859375 501.242188 329.910156 C 501.628906 330.617188 501.636719 333.4375 498.871094 339.066406 C 494.734375 347.480469 477.882812 363.734375 472.777344 368.042969 C 470.21875 369.316406 467.675781 370.636719 465.15625 371.996094 C 465.046875 372.046875 464.9375 372.105469 464.835938 372.167969 C 454.28125 377.878906 444.226562 384.269531 435.601562 390.789062 C 435.476562 390.882812 435.355469 390.988281 435.25 391.097656 C 434.035156 392.300781 433.867188 394.246094 434.925781 395.648438 C 436.082031 397.175781 438.257812 397.480469 439.785156 396.324219 C 447.0625 390.824219 456.355469 384.75 466.882812 378.96875 C 470.355469 380.367188 479.128906 383.84375 488.066406 386.957031 C 494.847656 389.324219 500.417969 391.03125 504.617188 392.027344 C 510.722656 393.480469 514.921875 393.832031 517.007812 391.109375 C 518.421875 389.253906 518.792969 386.863281 518.015625 384.546875 C 516.664062 380.511719 512.105469 377.226562 505.1875 375.300781 C 496.886719 372.992188 483.117188 374.664062 477.585938 375.492188 C 477.457031 375.511719 477.328125 375.539062 477.203125 375.570312 C 476.429688 375.269531 475.683594 374.984375 474.980469 374.710938 C 487.601562 368.359375 501.566406 362.667969 515.734375 358.910156 C 515.921875 358.875 516.109375 358.824219 516.289062 358.761719 C 521.242188 357.464844 526.214844 356.40625 531.164062 355.640625 C 533.058594 355.347656 534.355469 353.578125 534.0625 351.683594 C 533.832031 350.203125 532.699219 349.085938 531.3125 348.8125 C 533.355469 347.761719 535.386719 346.90625 537.257812 346.417969 C 543.65625 344.742188 546.242188 346.015625 546.714844 346.507812 C 546.394531 346.757812 545.394531 347.347656 542.84375 347.707031 C 540.714844 348.011719 538.78125 347.960938 538.761719 347.960938 C 536.851562 347.90625 535.253906 349.410156 535.195312 351.324219 C 535.136719 353.238281 536.640625 354.839844 538.558594 354.894531 C 538.683594 354.898438 541.707031 354.984375 544.855469 354.410156 C 551.601562 353.183594 553.371094 349.914062 553.671875 347.386719 C 553.945312 345.070312 553.046875 342.820312 551.203125 341.214844 C 548.003906 338.429688 542.425781 337.890625 535.5 339.703125 C 527.757812 341.730469 518.617188 348.300781 513.515625 352.339844 C 506.316406 354.28125 498.867188 356.773438 491.324219 359.761719 C 497.011719 353.757812 502.671875 347.0625 505.097656 342.125 C 508.527344 335.152344 509.253906 330.058594 507.316406 326.554688 C 506.128906 324.410156 503.996094 323.074219 501.3125 322.792969 Z M 503.328125 381.988281 C 508.273438 383.363281 510.347656 385.136719 511.101562 386.164062 C 508.980469 385.980469 503.902344 385.039062 492.363281 381.101562 C 496.621094 380.992188 500.5625 381.21875 503.328125 381.988281 Z M 503.328125 381.988281 " fill-opacity="1" fill-rule="nonzero"/><path fill="#000000" d="M 562.390625 427.941406 C 559.152344 424.675781 553.859375 424.652344 550.589844 427.890625 C 547.324219 431.132812 547.300781 436.425781 550.542969 439.695312 C 553.78125 442.960938 559.074219 442.984375 562.34375 439.742188 C 565.609375 436.503906 565.632812 431.207031 562.390625 427.941406 Z M 557.457031 434.816406 C 556.90625 435.359375 556.015625 435.355469 555.46875 434.808594 C 554.921875 434.257812 554.925781 433.363281 555.476562 432.820312 C 556.027344 432.273438 556.917969 432.277344 557.464844 432.828125 C 558.011719 433.378906 558.007812 434.269531 557.457031 434.816406 Z M 557.457031 434.816406 " fill-opacity="1" fill-rule="nonzero"/><path fill="#000000" d="M 528.75 526.492188 C 524.675781 530.53125 524.648438 537.132812 528.6875 541.203125 C 532.726562 545.277344 539.324219 545.304688 543.398438 541.265625 C 547.472656 537.230469 547.5 530.628906 543.460938 526.554688 C 539.421875 522.484375 532.824219 522.457031 528.75 526.492188 Z M 538.511719 536.339844 C 537.15625 537.683594 534.960938 537.675781 533.613281 536.320312 C 532.269531 534.964844 532.277344 532.765625 533.636719 531.421875 C 534.992188 530.078125 537.1875 530.085938 538.535156 531.441406 C 539.878906 532.796875 539.867188 534.996094 538.511719 536.339844 Z M 538.511719 536.339844 " fill-opacity="1" fill-rule="nonzero"/><path fill="#000000" d="M 419.964844 411.925781 C 424.039062 407.886719 424.066406 401.285156 420.027344 397.214844 C 415.988281 393.140625 409.390625 393.113281 405.316406 397.152344 C 401.246094 401.191406 401.214844 407.789062 405.253906 411.863281 C 409.292969 415.9375 415.894531 415.960938 419.964844 411.925781 Z M 410.203125 402.078125 C 411.558594 400.734375 413.753906 400.742188 415.101562 402.097656 C 416.445312 403.457031 416.4375 405.652344 415.078125 406.996094 C 413.722656 408.339844 411.527344 408.332031 410.179688 406.976562 C 408.835938 405.621094 408.84375 403.421875 410.203125 402.078125 Z M 410.203125 402.078125 " fill-opacity="1" fill-rule="nonzero"/><path fill="#000000" d="M 543.496094 298.140625 C 547.757812 293.914062 547.789062 287.007812 543.5625 282.742188 C 539.332031 278.480469 532.425781 278.453125 528.164062 282.679688 C 523.898438 286.90625 523.871094 293.8125 528.097656 298.078125 C 532.324219 302.339844 539.234375 302.367188 543.496094 298.140625 Z M 533.046875 287.605469 C 534.59375 286.074219 537.097656 286.085938 538.632812 287.628906 C 540.167969 289.175781 540.15625 291.683594 538.609375 293.214844 C 537.0625 294.75 534.558594 294.738281 533.023438 293.191406 C 531.492188 291.644531 531.5 289.140625 533.046875 287.605469 Z M 533.046875 287.605469 " fill-opacity="1" fill-rule="nonzero"/><g fill="#000000" fill-opacity="1"><g transform="translate(182.157147, 381.313294)"><g><path d="M 0.671875 -19.21875 C 0.722656 -19.550781 0.878906 -19.804688 1.140625 -19.984375 C 1.410156 -20.171875 1.703125 -20.238281 2.015625 -20.1875 C 2.335938 -20.132812 2.582031 -19.984375 2.75 -19.734375 C 2.925781 -19.484375 2.988281 -19.191406 2.9375 -18.859375 L 0.75 -4.765625 C 0.695312 -4.429688 0.546875 -4.171875 0.296875 -3.984375 C 0.046875 -3.796875 -0.25 -3.734375 -0.59375 -3.796875 L -25.1875 -7.625 C -25.519531 -7.675781 -25.773438 -7.828125 -25.953125 -8.078125 C -26.128906 -8.335938 -26.191406 -8.632812 -26.140625 -8.96875 L -23.953125 -23.0625 C -23.898438 -23.394531 -23.75 -23.648438 -23.5 -23.828125 C -23.25 -24.015625 -22.957031 -24.082031 -22.625 -24.03125 C -22.28125 -23.976562 -22.023438 -23.828125 -21.859375 -23.578125 C -21.691406 -23.328125 -21.632812 -23.035156 -21.6875 -22.703125 L -23.6875 -9.875 L -14.046875 -8.375 L -12.3125 -19.484375 C -12.257812 -19.804688 -12.101562 -20.0625 -11.84375 -20.25 C -11.59375 -20.4375 -11.300781 -20.503906 -10.96875 -20.453125 C -10.644531 -20.398438 -10.394531 -20.242188 -10.21875 -19.984375 C -10.050781 -19.734375 -9.992188 -19.445312 -10.046875 -19.125 L -11.78125 -8.015625 L -1.328125 -6.390625 Z M 0.671875 -19.21875 "/></g></g></g><g fill="#000000" fill-opacity="1"><g transform="translate(188.58105, 346.381194)"><g><path d="M -18.484375 -30.75 C -18.367188 -31.082031 -18.171875 -31.320312 -17.890625 -31.46875 C -17.609375 -31.613281 -17.332031 -31.644531 -17.0625 -31.5625 C -16.894531 -31.507812 -16.726562 -31.410156 -16.5625 -31.265625 L 3.703125 -13.578125 C 3.890625 -13.398438 4.019531 -13.1875 4.09375 -12.9375 C 4.164062 -12.695312 4.160156 -12.46875 4.078125 -12.25 C 4.003906 -12.03125 3.875 -11.847656 3.6875 -11.703125 C 3.507812 -11.566406 3.289062 -11.484375 3.03125 -11.453125 L -23.734375 -9.484375 C -23.898438 -9.453125 -24.109375 -9.476562 -24.359375 -9.5625 C -24.671875 -9.664062 -24.890625 -9.859375 -25.015625 -10.140625 C -25.140625 -10.429688 -25.160156 -10.710938 -25.078125 -10.984375 C -24.898438 -11.503906 -24.503906 -11.785156 -23.890625 -11.828125 L 0.328125 -13.625 L -18.078125 -29.484375 C -18.265625 -29.671875 -18.394531 -29.878906 -18.46875 -30.109375 C -18.539062 -30.335938 -18.546875 -30.550781 -18.484375 -30.75 Z M -18.484375 -30.75 "/></g></g></g><g fill="#000000" fill-opacity="1"><g transform="translate(202.213274, 309.556873)"><g><path d="M 6.9375 -17.9375 C 7.09375 -18.226562 7.328125 -18.414062 7.640625 -18.5 C 7.953125 -18.59375 8.242188 -18.566406 8.515625 -18.421875 C 8.816406 -18.265625 9.003906 -18.035156 9.078125 -17.734375 C 9.160156 -17.441406 9.125 -17.148438 8.96875 -16.859375 L 2.265625 -4.265625 C 2.109375 -3.960938 1.878906 -3.765625 1.578125 -3.671875 C 1.285156 -3.585938 0.988281 -3.625 0.6875 -3.78125 L -21.28125 -15.484375 C -21.582031 -15.640625 -21.773438 -15.863281 -21.859375 -16.15625 C -21.953125 -16.445312 -21.921875 -16.742188 -21.765625 -17.046875 L -15.0625 -29.640625 C -14.90625 -29.929688 -14.675781 -30.125 -14.375 -30.21875 C -14.082031 -30.320312 -13.785156 -30.296875 -13.484375 -30.140625 C -13.179688 -29.972656 -12.988281 -29.738281 -12.90625 -29.4375 C -12.832031 -29.144531 -12.875 -28.851562 -13.03125 -28.5625 L -19.125 -17.09375 L -10.515625 -12.515625 L -5.25 -22.4375 C -5.09375 -22.726562 -4.859375 -22.921875 -4.546875 -23.015625 C -4.242188 -23.109375 -3.945312 -23.078125 -3.65625 -22.921875 C -3.363281 -22.765625 -3.175781 -22.535156 -3.09375 -22.234375 C -3.019531 -21.941406 -3.0625 -21.648438 -3.21875 -21.359375 L -8.484375 -11.4375 L 0.84375 -6.46875 Z M 6.9375 -17.9375 "/></g></g></g><g fill="#000000" fill-opacity="1"><g transform="translate(219.929296, 278.633323)"><g><path d="M 9.421875 -16.3125 C 9.628906 -16.59375 9.878906 -16.753906 10.171875 -16.796875 C 10.472656 -16.847656 10.753906 -16.773438 11.015625 -16.578125 C 11.285156 -16.367188 11.441406 -16.113281 11.484375 -15.8125 C 11.535156 -15.507812 11.457031 -15.21875 11.25 -14.9375 L 2.90625 -3.859375 C 2.695312 -3.585938 2.4375 -3.425781 2.125 -3.375 C 1.820312 -3.332031 1.535156 -3.414062 1.265625 -3.625 L -18.625 -18.59375 C -18.882812 -18.789062 -19.03125 -19.050781 -19.0625 -19.375 C -19.101562 -19.695312 -19.015625 -20.003906 -18.796875 -20.296875 C -18.597656 -20.554688 -18.335938 -20.710938 -18.015625 -20.765625 C -17.703125 -20.816406 -17.414062 -20.742188 -17.15625 -20.546875 L 1.84375 -6.25 Z M 9.421875 -16.3125 "/></g></g></g><g fill="#000000" fill-opacity="1"><g transform="translate(241.330844, 251.892028)"><g><path d="M -3.140625 -33.484375 C -3.015625 -33.347656 -2.898438 -33.109375 -2.796875 -32.765625 L -0.703125 -18.171875 L 7.90625 -9.296875 C 8.144531 -9.046875 8.253906 -8.757812 8.234375 -8.4375 C 8.210938 -8.125 8.082031 -7.847656 7.84375 -7.609375 C 7.601562 -7.367188 7.328125 -7.25 7.015625 -7.25 C 6.710938 -7.257812 6.441406 -7.390625 6.203125 -7.640625 L -2.390625 -16.484375 L -16.921875 -18.96875 C -17.234375 -18.988281 -17.5 -19.113281 -17.71875 -19.34375 C -17.925781 -19.550781 -18.019531 -19.832031 -18 -20.1875 C -17.976562 -20.539062 -17.859375 -20.820312 -17.640625 -21.03125 C -17.335938 -21.320312 -16.972656 -21.421875 -16.546875 -21.328125 L -3.15625 -19.046875 L -5.140625 -32.390625 C -5.179688 -32.859375 -5.066406 -33.226562 -4.796875 -33.5 C -4.566406 -33.707031 -4.28125 -33.804688 -3.9375 -33.796875 C -3.601562 -33.785156 -3.335938 -33.679688 -3.140625 -33.484375 Z M -3.140625 -33.484375 "/></g></g></g><g fill="#000000" fill-opacity="1"><g transform="translate(267.136384, 228.071146)"><g><path d="M 4.140625 -35.765625 C 4.421875 -35.953125 4.695312 -36.015625 4.96875 -35.953125 C 5.25 -35.890625 5.472656 -35.734375 5.640625 -35.484375 L 19.671875 -14.921875 C 19.890625 -14.597656 19.960938 -14.28125 19.890625 -13.96875 C 19.828125 -13.65625 19.65625 -13.40625 19.375 -13.21875 C 19.21875 -13.113281 19.050781 -13.039062 18.875 -13 C 18.695312 -12.96875 18.535156 -12.972656 18.390625 -13.015625 L -8.078125 -22.1875 L 4.21875 -4.140625 C 4.375 -3.910156 4.421875 -3.644531 4.359375 -3.34375 C 4.296875 -3.050781 4.148438 -2.828125 3.921875 -2.671875 C 3.660156 -2.492188 3.382812 -2.429688 3.09375 -2.484375 C 2.800781 -2.546875 2.578125 -2.691406 2.421875 -2.921875 L -11.671875 -23.59375 C -11.867188 -23.882812 -11.929688 -24.175781 -11.859375 -24.46875 C -11.796875 -24.757812 -11.632812 -24.992188 -11.375 -25.171875 C -11.03125 -25.410156 -10.695312 -25.472656 -10.375 -25.359375 L 16.203125 -16.140625 L 3.84375 -34.265625 C 3.675781 -34.515625 3.617188 -34.78125 3.671875 -35.0625 C 3.722656 -35.351562 3.878906 -35.585938 4.140625 -35.765625 Z M 4.140625 -35.765625 "/></g></g></g><g fill="#000000" fill-opacity="1"><g transform="translate(302.323622, 205.789717)"><g><path d="M 16.4375 -9.984375 C 16.738281 -10.117188 17.039062 -10.125 17.34375 -10 C 17.644531 -9.882812 17.859375 -9.6875 17.984375 -9.40625 C 18.117188 -9.09375 18.128906 -8.796875 18.015625 -8.515625 C 17.898438 -8.234375 17.691406 -8.023438 17.390625 -7.890625 L 4.390625 -2 C 4.078125 -1.851562 3.773438 -1.832031 3.484375 -1.9375 C 3.203125 -2.050781 2.988281 -2.265625 2.84375 -2.578125 L -7.453125 -25.25 C -7.585938 -25.550781 -7.597656 -25.84375 -7.484375 -26.125 C -7.378906 -26.414062 -7.171875 -26.632812 -6.859375 -26.78125 L 6.140625 -32.671875 C 6.441406 -32.804688 6.738281 -32.820312 7.03125 -32.71875 C 7.320312 -32.613281 7.535156 -32.410156 7.671875 -32.109375 C 7.816406 -31.796875 7.832031 -31.492188 7.71875 -31.203125 C 7.601562 -30.921875 7.394531 -30.710938 7.09375 -30.578125 L -4.734375 -25.21875 L -0.703125 -16.34375 L 9.53125 -20.984375 C 9.832031 -21.117188 10.128906 -21.128906 10.421875 -21.015625 C 10.710938 -20.910156 10.929688 -20.707031 11.078125 -20.40625 C 11.210938 -20.101562 11.21875 -19.804688 11.09375 -19.515625 C 10.976562 -19.234375 10.769531 -19.023438 10.46875 -18.890625 L 0.234375 -14.25 L 4.609375 -4.625 Z M 16.4375 -9.984375 "/></g></g></g><g fill="#000000" fill-opacity="1"><g transform="translate(335.527702, 192.162081)"><g/></g></g><g fill="#000000" fill-opacity="1"><g transform="translate(358.986842, 185.58461)"><g><path d="M 19.046875 -30.421875 C 19.378906 -30.472656 19.675781 -30.398438 19.9375 -30.203125 C 20.207031 -30.015625 20.363281 -29.785156 20.40625 -29.515625 C 20.4375 -29.335938 20.425781 -29.140625 20.375 -28.921875 L 13.78125 -2.84375 C 13.707031 -2.59375 13.578125 -2.382812 13.390625 -2.21875 C 13.210938 -2.050781 13.003906 -1.945312 12.765625 -1.90625 C 12.535156 -1.875 12.316406 -1.90625 12.109375 -2 C 11.898438 -2.101562 11.726562 -2.257812 11.59375 -2.46875 L -2.296875 -25.453125 C -2.410156 -25.597656 -2.484375 -25.800781 -2.515625 -26.0625 C -2.566406 -26.382812 -2.488281 -26.664062 -2.28125 -26.90625 C -2.082031 -27.15625 -1.847656 -27.300781 -1.578125 -27.34375 C -1.023438 -27.414062 -0.597656 -27.1875 -0.296875 -26.65625 L 12.296875 -5.875 L 18.078125 -29.484375 C 18.171875 -29.722656 18.300781 -29.929688 18.46875 -30.109375 C 18.644531 -30.285156 18.835938 -30.390625 19.046875 -30.421875 Z M 19.046875 -30.421875 "/></g></g></g><g fill="#000000" fill-opacity="1"><g transform="translate(397.992503, 181.047015)"><g><path d="M 19.140625 -1.9375 C 19.472656 -1.925781 19.75 -1.800781 19.96875 -1.5625 C 20.1875 -1.332031 20.289062 -1.0625 20.28125 -0.75 C 20.28125 -0.414062 20.164062 -0.144531 19.9375 0.0625 C 19.707031 0.269531 19.425781 0.367188 19.09375 0.359375 L 4.828125 0.09375 C 4.484375 0.0820312 4.203125 -0.03125 3.984375 -0.25 C 3.773438 -0.476562 3.671875 -0.765625 3.671875 -1.109375 L 4.140625 -26 C 4.148438 -26.332031 4.265625 -26.601562 4.484375 -26.8125 C 4.710938 -27.03125 5 -27.132812 5.34375 -27.125 L 19.609375 -26.859375 C 19.941406 -26.847656 20.21875 -26.734375 20.4375 -26.515625 C 20.65625 -26.296875 20.757812 -26.019531 20.75 -25.6875 C 20.75 -25.34375 20.632812 -25.066406 20.40625 -24.859375 C 20.175781 -24.648438 19.894531 -24.550781 19.5625 -24.5625 L 6.578125 -24.8125 L 6.390625 -15.0625 L 17.625 -14.84375 C 17.957031 -14.84375 18.234375 -14.726562 18.453125 -14.5 C 18.671875 -14.269531 18.78125 -13.988281 18.78125 -13.65625 C 18.769531 -13.320312 18.648438 -13.050781 18.421875 -12.84375 C 18.191406 -12.644531 17.910156 -12.546875 17.578125 -12.546875 L 6.34375 -12.765625 L 6.15625 -2.1875 Z M 19.140625 -1.9375 "/></g></g></g><g fill="#000000" fill-opacity="1"><g transform="translate(433.559273, 182.7974)"><g><path d="M 10.765625 2.328125 C 8.929688 2.003906 7.359375 1.40625 6.046875 0.53125 C 4.742188 -0.34375 3.539062 -1.550781 2.4375 -3.09375 C 2.1875 -3.382812 2.097656 -3.710938 2.171875 -4.078125 C 2.222656 -4.378906 2.390625 -4.632812 2.671875 -4.84375 C 2.960938 -5.0625 3.257812 -5.144531 3.5625 -5.09375 C 3.875 -5.03125 4.132812 -4.851562 4.34375 -4.5625 C 5.9375 -2.007812 8.226562 -0.460938 11.21875 0.078125 C 13.050781 0.398438 14.648438 0.238281 16.015625 -0.40625 C 17.378906 -1.050781 18.191406 -2.078125 18.453125 -3.484375 C 18.640625 -4.585938 18.5 -5.550781 18.03125 -6.375 C 17.5625 -7.207031 16.878906 -7.941406 15.984375 -8.578125 C 15.097656 -9.222656 13.953125 -9.921875 12.546875 -10.671875 C 10.992188 -11.441406 9.710938 -12.222656 8.703125 -13.015625 C 7.703125 -13.804688 6.945312 -14.753906 6.4375 -15.859375 C 5.925781 -16.960938 5.804688 -18.265625 6.078125 -19.765625 C 6.316406 -21.117188 6.890625 -22.253906 7.796875 -23.171875 C 8.710938 -24.085938 9.882812 -24.726562 11.3125 -25.09375 C 12.738281 -25.457031 14.304688 -25.484375 16.015625 -25.171875 C 17.566406 -24.890625 18.976562 -24.363281 20.25 -23.59375 C 21.519531 -22.832031 22.476562 -21.894531 23.125 -20.78125 C 23.425781 -20.28125 23.546875 -19.875 23.484375 -19.5625 C 23.441406 -19.289062 23.269531 -19.054688 22.96875 -18.859375 C 22.675781 -18.660156 22.375 -18.59375 22.0625 -18.65625 C 21.8125 -18.695312 21.609375 -18.816406 21.453125 -19.015625 C 20.910156 -19.960938 20.113281 -20.796875 19.0625 -21.515625 C 18.007812 -22.234375 16.859375 -22.703125 15.609375 -22.921875 C 13.742188 -23.253906 12.148438 -23.113281 10.828125 -22.5 C 9.503906 -21.882812 8.71875 -20.859375 8.46875 -19.421875 C 8.195312 -17.953125 8.550781 -16.71875 9.53125 -15.71875 C 10.519531 -14.71875 12 -13.703125 13.96875 -12.671875 C 15.6875 -11.816406 17.066406 -11.003906 18.109375 -10.234375 C 19.148438 -9.460938 19.941406 -8.492188 20.484375 -7.328125 C 21.023438 -6.160156 21.148438 -4.734375 20.859375 -3.046875 C 20.617188 -1.742188 20.023438 -0.632812 19.078125 0.28125 C 18.140625 1.195312 16.945312 1.84375 15.5 2.21875 C 14.050781 2.601562 12.472656 2.640625 10.765625 2.328125 Z M 10.765625 2.328125 "/></g></g></g><g fill="#000000" fill-opacity="1"><g transform="translate(468.12068, 189.977254)"><g><path d="M 30.640625 -15.8125 C 30.921875 -15.457031 30.992188 -15.09375 30.859375 -14.71875 C 30.773438 -14.488281 30.601562 -14.273438 30.34375 -14.078125 C 30.007812 -13.867188 29.675781 -13.828125 29.34375 -13.953125 C 29.15625 -14.023438 28.988281 -14.15625 28.84375 -14.34375 C 27.34375 -16.34375 25.429688 -17.757812 23.109375 -18.59375 C 21.140625 -19.300781 19.1875 -19.476562 17.25 -19.125 C 15.320312 -18.769531 13.601562 -17.914062 12.09375 -16.5625 C 10.582031 -15.21875 9.445312 -13.476562 8.6875 -11.34375 C 7.914062 -9.175781 7.691406 -7.09375 8.015625 -5.09375 C 8.347656 -3.09375 9.148438 -1.347656 10.421875 0.140625 C 11.691406 1.628906 13.300781 2.722656 15.25 3.421875 C 17.570312 4.253906 19.921875 4.382812 22.296875 3.8125 C 22.546875 3.738281 22.78125 3.742188 23 3.828125 C 23.332031 3.953125 23.5625 4.203125 23.6875 4.578125 C 23.78125 4.828125 23.78125 5.085938 23.6875 5.359375 C 23.539062 5.753906 23.265625 5.984375 22.859375 6.046875 C 21.679688 6.359375 20.320312 6.476562 18.78125 6.40625 C 17.238281 6.332031 15.804688 6.0625 14.484375 5.59375 C 12.171875 4.769531 10.226562 3.445312 8.65625 1.625 C 7.082031 -0.1875 6.070312 -2.300781 5.625 -4.71875 C 5.175781 -7.132812 5.410156 -9.625 6.328125 -12.1875 C 7.210938 -14.664062 8.585938 -16.703125 10.453125 -18.296875 C 12.316406 -19.898438 14.429688 -20.921875 16.796875 -21.359375 C 19.160156 -21.796875 21.523438 -21.59375 23.890625 -20.75 C 25.253906 -20.257812 26.519531 -19.582031 27.6875 -18.71875 C 28.851562 -17.863281 29.835938 -16.894531 30.640625 -15.8125 Z M 30.640625 -15.8125 "/></g></g></g><g fill="#000000" fill-opacity="1"><g transform="translate(504.170777, 203.9913)"><g><path d="M 33.625 -12.0625 C 33.9375 -11.875 34.132812 -11.632812 34.21875 -11.34375 C 34.300781 -11.050781 34.253906 -10.742188 34.078125 -10.421875 L 21.703125 11.078125 C 21.503906 11.390625 21.25 11.582031 20.9375 11.65625 C 20.625 11.726562 20.316406 11.679688 20.015625 11.515625 C 19.734375 11.347656 19.546875 11.101562 19.453125 10.78125 C 19.367188 10.457031 19.410156 10.148438 19.578125 9.859375 L 25.359375 -0.1875 L 11.671875 -8.046875 L 5.890625 2 C 5.691406 2.269531 5.429688 2.445312 5.109375 2.53125 C 4.796875 2.625 4.5 2.585938 4.21875 2.421875 C 3.894531 2.242188 3.691406 2.003906 3.609375 1.703125 C 3.535156 1.410156 3.585938 1.101562 3.765625 0.78125 L 16.140625 -20.71875 C 16.316406 -21.039062 16.5625 -21.238281 16.875 -21.3125 C 17.1875 -21.382812 17.5 -21.332031 17.8125 -21.15625 C 18.101562 -20.988281 18.289062 -20.742188 18.375 -20.421875 C 18.46875 -20.097656 18.429688 -19.789062 18.265625 -19.5 L 12.796875 -10 L 26.484375 -2.140625 L 31.953125 -11.640625 C 32.117188 -11.929688 32.363281 -12.113281 32.6875 -12.1875 C 33.019531 -12.269531 33.332031 -12.226562 33.625 -12.0625 Z M 33.625 -12.0625 "/></g></g></g><g fill="#000000" fill-opacity="1"><g transform="translate(539.284005, 225.683827)"><g><path d="M 19.328125 14.234375 C 19.234375 14.429688 19.148438 14.566406 19.078125 14.640625 C 18.859375 14.910156 18.59375 15.046875 18.28125 15.046875 C 17.976562 15.054688 17.710938 14.960938 17.484375 14.765625 C 17.285156 14.597656 17.15625 14.394531 17.09375 14.15625 C 17.03125 13.914062 17.03125 13.675781 17.09375 13.4375 L 19.46875 6.109375 L 9.796875 -2.03125 L 3 1.578125 C 2.519531 1.835938 2.085938 1.804688 1.703125 1.484375 C 1.429688 1.253906 1.28125 1.007812 1.25 0.75 C 1.226562 0.5 1.304688 0.242188 1.484375 -0.015625 L 1.5625 -0.125 C 1.664062 -0.238281 1.75 -0.3125 1.8125 -0.34375 L 25.859375 -12.953125 C 26.347656 -13.222656 26.8125 -13.175781 27.25 -12.8125 C 27.445312 -12.644531 27.570312 -12.4375 27.625 -12.1875 C 27.6875 -11.945312 27.679688 -11.707031 27.609375 -11.46875 Z M 11.96875 -3.203125 L 20.234375 3.765625 L 24.625 -9.921875 Z M 11.96875 -3.203125 "/></g></g></g><g fill="#000000" fill-opacity="1"><g transform="translate(568.032667, 251.083186)"><g><path d="M 38.390625 4.015625 C 38.585938 4.253906 38.671875 4.53125 38.640625 4.84375 C 38.617188 5.15625 38.476562 5.414062 38.21875 5.625 L 18.921875 21.359375 C 18.660156 21.566406 18.367188 21.648438 18.046875 21.609375 C 17.734375 21.578125 17.46875 21.425781 17.25 21.15625 C 17.019531 20.875 16.914062 20.570312 16.9375 20.25 C 16.96875 19.9375 17.113281 19.675781 17.375 19.46875 L 33.953125 5.953125 L 17.4375 7.59375 C 17.019531 7.613281 16.710938 7.476562 16.515625 7.1875 L 16.46875 7.140625 C 16.269531 6.898438 16.207031 6.582031 16.28125 6.1875 L 21.3125 -9.703125 L 4.671875 3.875 C 4.410156 4.082031 4.125 4.171875 3.8125 4.140625 C 3.5 4.117188 3.234375 3.972656 3.015625 3.703125 C 2.804688 3.441406 2.722656 3.160156 2.765625 2.859375 C 2.804688 2.554688 2.957031 2.300781 3.21875 2.09375 L 22.515625 -13.640625 C 22.742188 -13.828125 23.015625 -13.910156 23.328125 -13.890625 C 23.648438 -13.867188 23.921875 -13.726562 24.140625 -13.46875 C 24.253906 -13.320312 24.34375 -13.140625 24.40625 -12.921875 C 24.46875 -12.703125 24.472656 -12.503906 24.421875 -12.328125 L 19.015625 5.21875 L 37.34375 3.53125 C 37.820312 3.5 38.171875 3.660156 38.390625 4.015625 Z M 38.390625 4.015625 "/></g></g></g><g fill="#000000" fill-opacity="1"><g transform="translate(595.443739, 287.162662)"><g><path d="M 21.390625 9.109375 C 21.796875 10.648438 21.71875 12.128906 21.15625 13.546875 C 20.601562 14.972656 19.5 16.132812 17.84375 17.03125 C 15.613281 18.238281 13.570312 18.453125 11.71875 17.671875 C 9.875 16.898438 8.394531 15.488281 7.28125 13.4375 L 2.296875 4.25 C 2.140625 3.945312 2.101562 3.644531 2.1875 3.34375 C 2.28125 3.050781 2.476562 2.820312 2.78125 2.65625 L 24.65625 -9.203125 C 24.957031 -9.359375 25.253906 -9.390625 25.546875 -9.296875 C 25.835938 -9.210938 26.0625 -9.019531 26.21875 -8.71875 L 31.125 0.328125 C 32.164062 2.242188 32.457031 4.023438 32 5.671875 C 31.539062 7.328125 30.398438 8.648438 28.578125 9.640625 C 27.367188 10.296875 26.125 10.582031 24.84375 10.5 C 23.5625 10.425781 22.410156 9.960938 21.390625 9.109375 Z M 27.234375 7.53125 C 28.484375 6.84375 29.265625 5.9375 29.578125 4.8125 C 29.890625 3.695312 29.6875 2.472656 28.96875 1.140625 L 24.828125 -6.46875 L 16.28125 -1.84375 L 20.421875 5.765625 C 21.117188 6.992188 22.066406 7.785156 23.265625 8.140625 C 24.472656 8.503906 25.796875 8.300781 27.234375 7.53125 Z M 9.25 12.25 C 10.070312 13.769531 11.125 14.789062 12.40625 15.3125 C 13.695312 15.84375 15.113281 15.691406 16.65625 14.859375 C 18.257812 13.984375 19.171875 12.851562 19.390625 11.46875 C 19.617188 10.09375 19.320312 8.644531 18.5 7.125 L 14.234375 -0.734375 L 4.9375 4.3125 Z M 9.25 12.25 "/></g></g></g><g fill="#000000" fill-opacity="1"><g transform="translate(612.857926, 321.66404)"><g><path d="M 9.4375 21.65625 C 9.320312 22.101562 9.078125 22.390625 8.703125 22.515625 C 8.585938 22.554688 8.414062 22.554688 8.1875 22.515625 C 7.96875 22.484375 7.78125 22.394531 7.625 22.25 C 7.46875 22.101562 7.359375 21.9375 7.296875 21.75 C 7.210938 21.507812 7.191406 21.285156 7.234375 21.078125 C 7.398438 20.265625 7.851562 19.5 8.59375 18.78125 C 9.34375 18.0625 10.691406 17.375 12.640625 16.71875 C 14.359375 16.144531 15.40625 15.257812 15.78125 14.0625 C 16.164062 12.875 16.140625 11.613281 15.703125 10.28125 L 12.96875 2.109375 L 3.046875 5.421875 C 2.722656 5.535156 2.421875 5.523438 2.140625 5.390625 C 1.867188 5.265625 1.679688 5.046875 1.578125 4.734375 C 1.460938 4.378906 1.46875 4.046875 1.59375 3.734375 C 1.71875 3.421875 1.941406 3.207031 2.265625 3.09375 L 25.875 -4.78125 C 26.1875 -4.894531 26.476562 -4.878906 26.75 -4.734375 C 27.03125 -4.597656 27.226562 -4.367188 27.34375 -4.046875 L 30.671875 5.90625 C 31.140625 7.3125 31.257812 8.671875 31.03125 9.984375 C 30.800781 11.296875 30.257812 12.4375 29.40625 13.40625 C 28.5625 14.382812 27.472656 15.09375 26.140625 15.53125 C 24.578125 16.050781 23.054688 16.101562 21.578125 15.6875 C 20.109375 15.269531 18.925781 14.46875 18.03125 13.28125 C 17.988281 14.507812 17.582031 15.632812 16.8125 16.65625 C 16.039062 17.675781 14.945312 18.4375 13.53125 18.9375 C 12.019531 19.46875 10.988281 19.929688 10.4375 20.328125 C 9.882812 20.722656 9.550781 21.164062 9.4375 21.65625 Z M 17.953125 10.28125 C 18.316406 11.113281 18.863281 11.816406 19.59375 12.390625 C 20.332031 12.972656 21.191406 13.34375 22.171875 13.5 C 23.148438 13.65625 24.1875 13.554688 25.28125 13.203125 C 26.675781 12.734375 27.675781 11.875 28.28125 10.625 C 28.894531 9.375 28.945312 7.984375 28.4375 6.453125 L 25.578125 -2.09375 L 15 1.4375 Z M 17.953125 10.28125 "/></g></g></g><g fill="#000000" fill-opacity="1"><g transform="translate(624.128976, 359.476107)"><g><path d="M 5.203125 18.5 C 5.253906 18.832031 5.179688 19.125 4.984375 19.375 C 4.796875 19.632812 4.546875 19.789062 4.234375 19.84375 C 3.910156 19.894531 3.625 19.828125 3.375 19.640625 C 3.132812 19.453125 2.988281 19.191406 2.9375 18.859375 L 0.75 4.765625 C 0.695312 4.429688 0.757812 4.140625 0.9375 3.890625 C 1.113281 3.640625 1.375 3.484375 1.71875 3.421875 L 26.3125 -0.40625 C 26.644531 -0.457031 26.9375 -0.390625 27.1875 -0.203125 C 27.4375 -0.0234375 27.585938 0.226562 27.640625 0.5625 L 29.828125 14.65625 C 29.878906 14.988281 29.816406 15.28125 29.640625 15.53125 C 29.460938 15.789062 29.207031 15.945312 28.875 16 C 28.53125 16.050781 28.238281 15.984375 28 15.796875 C 27.757812 15.609375 27.613281 15.347656 27.5625 15.015625 L 25.5625 2.1875 L 15.921875 3.6875 L 17.65625 14.796875 C 17.707031 15.117188 17.640625 15.410156 17.453125 15.671875 C 17.273438 15.929688 17.019531 16.085938 16.6875 16.140625 C 16.363281 16.191406 16.078125 16.117188 15.828125 15.921875 C 15.585938 15.734375 15.441406 15.476562 15.390625 15.15625 L 13.65625 4.046875 L 3.203125 5.671875 Z M 5.203125 18.5 "/></g></g></g><g fill="#000000" fill-opacity="1"><g transform="translate(190.387487, 552.011713)"><g/></g></g><g fill="#000000" fill-opacity="1"><g transform="translate(203.318231, 571.291182)"><g><path d="M 18.953125 4.109375 C 19.523438 5.304688 19.695312 6.53125 19.46875 7.78125 C 19.238281 9.039062 18.519531 10.160156 17.3125 11.140625 C 15.664062 12.492188 14.023438 12.992188 12.390625 12.640625 C 10.753906 12.296875 9.316406 11.367188 8.078125 9.859375 L 2.546875 3.109375 C 2.367188 2.890625 2.289062 2.648438 2.3125 2.390625 C 2.34375 2.140625 2.46875 1.925781 2.6875 1.75 L 18.75 -11.421875 C 18.96875 -11.597656 19.203125 -11.671875 19.453125 -11.640625 C 19.710938 -11.617188 19.929688 -11.5 20.109375 -11.28125 L 25.5625 -4.625 C 26.707031 -3.21875 27.21875 -1.800781 27.09375 -0.375 C 26.976562 1.039062 26.253906 2.296875 24.921875 3.390625 C 24.035156 4.117188 23.0625 4.550781 22 4.6875 C 20.945312 4.820312 19.929688 4.628906 18.953125 4.109375 Z M 23.484375 1.890625 C 24.398438 1.140625 24.898438 0.273438 24.984375 -0.703125 C 25.066406 -1.679688 24.710938 -2.65625 23.921875 -3.625 L 19.34375 -9.21875 L 13.0625 -4.078125 L 17.640625 1.515625 C 18.398438 2.398438 19.300781 2.898438 20.34375 3.015625 C 21.382812 3.128906 22.429688 2.753906 23.484375 1.890625 Z M 9.484375 8.59375 C 10.398438 9.707031 11.425781 10.375 12.5625 10.59375 C 13.707031 10.820312 14.847656 10.46875 15.984375 9.53125 C 17.148438 8.570312 17.71875 7.515625 17.6875 6.359375 C 17.664062 5.203125 17.191406 4.0625 16.265625 2.9375 L 11.546875 -2.828125 L 4.71875 2.765625 Z M 9.484375 8.59375 "/></g></g></g><g fill="#000000" fill-opacity="1"><g transform="translate(226.682265, 597.923345)"><g><path d="M 4.359375 2.828125 C 4.148438 3.003906 3.90625 3.09375 3.625 3.09375 C 3.34375 3.101562 3.109375 3.015625 2.921875 2.828125 C 2.691406 2.609375 2.570312 2.367188 2.5625 2.109375 C 2.5625 1.859375 2.671875 1.625 2.890625 1.40625 L 17.296875 -13.46875 C 17.503906 -13.675781 17.738281 -13.773438 18 -13.765625 C 18.269531 -13.765625 18.515625 -13.660156 18.734375 -13.453125 C 18.941406 -13.253906 19.046875 -13.019531 19.046875 -12.75 C 19.046875 -12.476562 18.953125 -12.242188 18.765625 -12.046875 Z M 4.359375 2.828125 "/></g></g></g><g fill="#000000" fill-opacity="1"><g transform="translate(243.097091, 613.137404)"><g><path d="M 13.75 8.265625 C 13.96875 8.441406 14.085938 8.660156 14.109375 8.921875 C 14.140625 9.191406 14.078125 9.429688 13.921875 9.640625 C 13.742188 9.859375 13.53125 9.976562 13.28125 10 C 13.03125 10.019531 12.796875 9.941406 12.578125 9.765625 L 3.171875 2.46875 C 2.953125 2.289062 2.820312 2.070312 2.78125 1.8125 C 2.75 1.5625 2.820312 1.328125 3 1.109375 L 15.734375 -15.28125 C 15.910156 -15.507812 16.125 -15.640625 16.375 -15.671875 C 16.632812 -15.703125 16.875 -15.628906 17.09375 -15.453125 L 26.5 -8.15625 C 26.71875 -7.976562 26.84375 -7.757812 26.875 -7.5 C 26.914062 -7.25 26.847656 -7.007812 26.671875 -6.78125 C 26.503906 -6.5625 26.296875 -6.441406 26.046875 -6.421875 C 25.796875 -6.398438 25.5625 -6.476562 25.34375 -6.65625 L 16.78125 -13.296875 L 11.78125 -6.875 L 19.1875 -1.125 C 19.414062 -0.945312 19.539062 -0.726562 19.5625 -0.46875 C 19.59375 -0.207031 19.519531 0.03125 19.34375 0.25 C 19.175781 0.46875 18.96875 0.585938 18.71875 0.609375 C 18.46875 0.640625 18.226562 0.566406 18 0.390625 L 10.59375 -5.359375 L 5.1875 1.625 Z M 13.75 8.265625 "/></g></g></g><g fill="#000000" fill-opacity="1"><g transform="translate(269.73374, 632.750829)"><g><path d="M 28.328125 -9.96875 C 28.578125 -9.832031 28.726562 -9.644531 28.78125 -9.40625 C 28.832031 -9.175781 28.796875 -8.945312 28.671875 -8.71875 L 18.375 9.3125 C 18.207031 9.59375 17.992188 9.757812 17.734375 9.8125 C 17.484375 9.875 17.234375 9.835938 16.984375 9.703125 C 16.847656 9.628906 16.734375 9.53125 16.640625 9.40625 C 16.554688 9.28125 16.5 9.15625 16.46875 9.03125 L 13.6875 -14.15625 L 4.65625 1.640625 C 4.53125 1.847656 4.347656 1.984375 4.109375 2.046875 C 3.867188 2.109375 3.644531 2.082031 3.4375 1.96875 C 3.207031 1.832031 3.054688 1.644531 2.984375 1.40625 C 2.921875 1.175781 2.953125 0.957031 3.078125 0.75 L 13.421875 -17.359375 C 13.566406 -17.617188 13.765625 -17.78125 14.015625 -17.84375 C 14.265625 -17.90625 14.5 -17.875 14.71875 -17.75 C 15.03125 -17.570312 15.195312 -17.335938 15.21875 -17.046875 L 18.015625 6.265625 L 27.09375 -9.625 C 27.21875 -9.851562 27.398438 -10 27.640625 -10.0625 C 27.878906 -10.125 28.109375 -10.09375 28.328125 -9.96875 Z M 28.328125 -9.96875 "/></g></g></g><g fill="#000000" fill-opacity="1"><g transform="translate(303.436894, 650.515161)"><g><path d="M 5.453125 -5.859375 C 5.191406 -5.972656 5.015625 -6.144531 4.921875 -6.375 C 4.835938 -6.601562 4.847656 -6.847656 4.953125 -7.109375 C 5.054688 -7.367188 5.222656 -7.546875 5.453125 -7.640625 C 5.679688 -7.742188 5.925781 -7.738281 6.1875 -7.625 L 12.671875 -4.96875 C 12.929688 -4.863281 13.109375 -4.6875 13.203125 -4.4375 C 13.296875 -4.195312 13.285156 -3.945312 13.171875 -3.6875 C 13.078125 -3.445312 12.910156 -3.28125 12.671875 -3.1875 C 12.441406 -3.09375 12.195312 -3.097656 11.9375 -3.203125 Z M 5.453125 -5.859375 "/></g></g></g><g fill="#000000" fill-opacity="1"><g transform="translate(328.691542, 660.149388)"><g><path d="M 15.859375 2.421875 C 16.128906 2.492188 16.328125 2.648438 16.453125 2.890625 C 16.578125 3.128906 16.601562 3.375 16.53125 3.625 C 16.457031 3.894531 16.304688 4.085938 16.078125 4.203125 C 15.859375 4.316406 15.613281 4.335938 15.34375 4.265625 L 3.875 1.078125 C 3.601562 1.003906 3.398438 0.851562 3.265625 0.625 C 3.140625 0.394531 3.117188 0.144531 3.203125 -0.125 L 8.75 -20.125 C 8.832031 -20.394531 8.984375 -20.59375 9.203125 -20.71875 C 9.429688 -20.84375 9.679688 -20.867188 9.953125 -20.796875 L 21.421875 -17.609375 C 21.691406 -17.535156 21.890625 -17.382812 22.015625 -17.15625 C 22.148438 -16.925781 22.175781 -16.675781 22.09375 -16.40625 C 22.019531 -16.132812 21.867188 -15.941406 21.640625 -15.828125 C 21.421875 -15.710938 21.175781 -15.691406 20.90625 -15.765625 L 10.46875 -18.671875 L 8.296875 -10.828125 L 17.328125 -8.3125 C 17.597656 -8.238281 17.796875 -8.085938 17.921875 -7.859375 C 18.046875 -7.628906 18.070312 -7.378906 18 -7.109375 C 17.925781 -6.835938 17.773438 -6.644531 17.546875 -6.53125 C 17.328125 -6.414062 17.082031 -6.394531 16.8125 -6.46875 L 7.78125 -8.984375 L 5.421875 -0.484375 Z M 20.390625 -21.078125 C 20.515625 -20.828125 20.554688 -20.617188 20.515625 -20.453125 C 20.484375 -20.347656 20.398438 -20.257812 20.265625 -20.1875 C 20.128906 -20.113281 20.003906 -20.09375 19.890625 -20.125 C 19.660156 -20.1875 19.410156 -20.398438 19.140625 -20.765625 L 17.0625 -23.375 L 14.125 -22.125 C 13.675781 -21.957031 13.359375 -21.898438 13.171875 -21.953125 C 13.035156 -21.992188 12.925781 -22.078125 12.84375 -22.203125 C 12.757812 -22.335938 12.734375 -22.460938 12.765625 -22.578125 C 12.816406 -22.753906 12.957031 -22.910156 13.1875 -23.046875 L 16.28125 -24.953125 C 16.507812 -25.085938 16.707031 -25.171875 16.875 -25.203125 C 17.039062 -25.242188 17.238281 -25.234375 17.46875 -25.171875 L 17.828125 -25.078125 C 18.054688 -25.015625 18.234375 -24.921875 18.359375 -24.796875 C 18.484375 -24.679688 18.601562 -24.503906 18.71875 -24.265625 Z M 20.390625 -21.078125 "/></g></g></g><g fill="#000000" fill-opacity="1"><g transform="translate(360.694276, 668.077202)"><g><path d="M 20.46875 -20.078125 C 20.75 -20.035156 20.96875 -19.914062 21.125 -19.71875 C 21.28125 -19.53125 21.34375 -19.296875 21.3125 -19.015625 C 21.269531 -18.734375 21.144531 -18.523438 20.9375 -18.390625 C 20.738281 -18.253906 20.5 -18.207031 20.21875 -18.25 L 13.5625 -19.171875 L 10.828125 0.53125 C 10.785156 0.800781 10.65625 1.015625 10.4375 1.171875 C 10.226562 1.328125 9.984375 1.382812 9.703125 1.34375 C 9.398438 1.300781 9.171875 1.175781 9.015625 0.96875 C 8.867188 0.757812 8.816406 0.519531 8.859375 0.25 L 11.59375 -19.453125 L 4.9375 -20.375 C 4.65625 -20.40625 4.429688 -20.519531 4.265625 -20.71875 C 4.109375 -20.914062 4.050781 -21.15625 4.09375 -21.4375 C 4.125 -21.695312 4.242188 -21.894531 4.453125 -22.03125 C 4.660156 -22.175781 4.90625 -22.234375 5.1875 -22.203125 Z M 20.46875 -20.078125 "/></g></g></g><g fill="#000000" fill-opacity="1"><g transform="translate(394.708932, 671.842053)"><g><path d="M 19.625 -1.78125 C 19.945312 -1.570312 20.109375 -1.304688 20.109375 -0.984375 C 20.109375 -0.878906 20.066406 -0.734375 19.984375 -0.546875 C 19.898438 -0.398438 19.78125 -0.28125 19.625 -0.1875 C 19.46875 -0.101562 19.304688 -0.0625 19.140625 -0.0625 C 18.921875 -0.0625 18.738281 -0.101562 18.59375 -0.1875 C 17.976562 -0.539062 17.488281 -1.101562 17.125 -1.875 C 16.757812 -2.65625 16.570312 -3.898438 16.5625 -5.609375 C 16.5625 -7.117188 16.140625 -8.179688 15.296875 -8.796875 C 14.453125 -9.421875 13.445312 -9.734375 12.28125 -9.734375 L 5.078125 -9.71875 L 5.09375 -0.984375 C 5.09375 -0.703125 5.003906 -0.46875 4.828125 -0.28125 C 4.660156 -0.101562 4.4375 -0.015625 4.15625 -0.015625 C 3.851562 -0.00390625 3.59375 -0.0859375 3.375 -0.265625 C 3.15625 -0.453125 3.046875 -0.6875 3.046875 -0.96875 L 3 -21.734375 C 3 -22.015625 3.085938 -22.242188 3.265625 -22.421875 C 3.453125 -22.609375 3.6875 -22.707031 3.96875 -22.71875 L 12.734375 -22.734375 C 13.960938 -22.734375 15.0625 -22.46875 16.03125 -21.9375 C 17.007812 -21.40625 17.773438 -20.675781 18.328125 -19.75 C 18.890625 -18.820312 19.171875 -17.773438 19.171875 -16.609375 C 19.171875 -15.222656 18.8125 -14.003906 18.09375 -12.953125 C 17.375 -11.910156 16.429688 -11.191406 15.265625 -10.796875 C 16.210938 -10.429688 16.988281 -9.8125 17.59375 -8.9375 C 18.195312 -8.0625 18.507812 -6.992188 18.53125 -5.734375 C 18.570312 -4.398438 18.671875 -3.460938 18.828125 -2.921875 C 18.992188 -2.378906 19.257812 -2 19.625 -1.78125 Z M 12.859375 -11.515625 C 13.617188 -11.578125 14.316406 -11.820312 14.953125 -12.25 C 15.597656 -12.6875 16.113281 -13.269531 16.5 -14 C 16.894531 -14.738281 17.09375 -15.585938 17.09375 -16.546875 C 17.09375 -17.773438 16.671875 -18.796875 15.828125 -19.609375 C 14.992188 -20.421875 13.910156 -20.828125 12.578125 -20.828125 L 5.046875 -20.8125 L 5.078125 -11.5 Z M 12.859375 -11.515625 "/></g></g></g><g fill="#000000" fill-opacity="1"><g transform="translate(431.014131, 670.653495)"><g><path d="M 15.5 -4.109375 C 15.78125 -4.140625 16.023438 -4.070312 16.234375 -3.90625 C 16.441406 -3.738281 16.566406 -3.523438 16.609375 -3.265625 C 16.640625 -2.992188 16.578125 -2.757812 16.421875 -2.5625 C 16.265625 -2.363281 16.046875 -2.25 15.765625 -2.21875 L 3.984375 -0.5625 C 3.703125 -0.519531 3.457031 -0.578125 3.25 -0.734375 C 3.039062 -0.890625 2.914062 -1.101562 2.875 -1.375 L 0 -21.9375 C -0.0390625 -22.21875 0.015625 -22.460938 0.171875 -22.671875 C 0.328125 -22.878906 0.546875 -23.003906 0.828125 -23.046875 L 12.609375 -24.703125 C 12.890625 -24.734375 13.132812 -24.671875 13.34375 -24.515625 C 13.550781 -24.359375 13.675781 -24.140625 13.71875 -23.859375 C 13.75 -23.585938 13.6875 -23.351562 13.53125 -23.15625 C 13.375 -22.957031 13.15625 -22.84375 12.875 -22.8125 L 2.15625 -21.296875 L 3.28125 -13.234375 L 12.5625 -14.546875 C 12.84375 -14.578125 13.082031 -14.507812 13.28125 -14.34375 C 13.488281 -14.1875 13.613281 -13.972656 13.65625 -13.703125 C 13.695312 -13.421875 13.640625 -13.179688 13.484375 -12.984375 C 13.335938 -12.785156 13.125 -12.671875 12.84375 -12.640625 L 3.5625 -11.328125 L 4.78125 -2.59375 Z M 15.5 -4.109375 "/></g></g></g><g fill="#000000" fill-opacity="1"><g transform="translate(463.225894, 665.066317)"><g/></g></g><g fill="#000000" fill-opacity="1"><g transform="translate(485.51385, 658.828226)"><g><path d="M 14.21875 -7.40625 C 14.488281 -7.5 14.742188 -7.488281 14.984375 -7.375 C 15.222656 -7.269531 15.390625 -7.09375 15.484375 -6.84375 C 15.578125 -6.582031 15.566406 -6.335938 15.453125 -6.109375 C 15.347656 -5.878906 15.160156 -5.71875 14.890625 -5.625 L 3.75 -1.421875 C 3.488281 -1.316406 3.238281 -1.316406 3 -1.421875 C 2.769531 -1.535156 2.601562 -1.722656 2.5 -1.984375 L -4.828125 -21.40625 C -4.929688 -21.675781 -4.925781 -21.925781 -4.8125 -22.15625 C -4.707031 -22.382812 -4.523438 -22.550781 -4.265625 -22.65625 L 6.875 -26.859375 C 7.144531 -26.953125 7.394531 -26.945312 7.625 -26.84375 C 7.863281 -26.75 8.035156 -26.566406 8.140625 -26.296875 C 8.234375 -26.035156 8.222656 -25.789062 8.109375 -25.5625 C 8.003906 -25.332031 7.816406 -25.171875 7.546875 -25.078125 L -2.578125 -21.25 L 0.296875 -13.640625 L 9.0625 -16.953125 C 9.332031 -17.054688 9.582031 -17.050781 9.8125 -16.9375 C 10.050781 -16.820312 10.21875 -16.632812 10.3125 -16.375 C 10.414062 -16.113281 10.410156 -15.867188 10.296875 -15.640625 C 10.191406 -15.421875 10.003906 -15.257812 9.734375 -15.15625 L 0.96875 -11.84375 L 4.09375 -3.578125 Z M 14.21875 -7.40625 "/></g></g></g><g fill="#000000" fill-opacity="1"><g transform="translate(516.019613, 646.321073)"><g><path d="M 4.65625 -28.28125 C 4.90625 -28.414062 5.148438 -28.453125 5.390625 -28.390625 C 5.640625 -28.328125 5.832031 -28.171875 5.96875 -27.921875 C 6.09375 -27.679688 6.113281 -27.441406 6.03125 -27.203125 C 5.945312 -26.972656 5.78125 -26.789062 5.53125 -26.65625 L -0.390625 -23.484375 L 9.046875 -5.984375 C 9.171875 -5.734375 9.191406 -5.476562 9.109375 -5.21875 C 9.035156 -4.96875 8.875 -4.773438 8.625 -4.640625 C 8.363281 -4.503906 8.109375 -4.472656 7.859375 -4.546875 C 7.609375 -4.617188 7.421875 -4.78125 7.296875 -5.03125 L -2.140625 -22.53125 L -8.0625 -19.34375 C -8.3125 -19.207031 -8.554688 -19.171875 -8.796875 -19.234375 C -9.035156 -19.304688 -9.21875 -19.46875 -9.34375 -19.71875 C -9.46875 -19.945312 -9.492188 -20.175781 -9.421875 -20.40625 C -9.347656 -20.644531 -9.1875 -20.832031 -8.9375 -20.96875 Z M 4.65625 -28.28125 "/></g></g></g><g fill="#000000" fill-opacity="1"><g transform="translate(545.312379, 629.282599)"><g/></g></g><g fill="#000000" fill-opacity="1"><g transform="translate(564.044448, 615.649014)"><g><path d="M -6.171875 -24.796875 C -5.265625 -25.585938 -4.269531 -26.082031 -3.1875 -26.28125 C -2.113281 -26.488281 -1.050781 -26.398438 0 -26.015625 C 1.039062 -25.628906 1.960938 -24.972656 2.765625 -24.046875 C 3.578125 -23.117188 4.117188 -22.097656 4.390625 -20.984375 C 4.671875 -19.867188 4.644531 -18.78125 4.3125 -17.71875 C 3.988281 -16.65625 3.375 -15.726562 2.46875 -14.9375 L -2.5625 -10.515625 L 3.125 -4.03125 C 3.3125 -3.8125 3.394531 -3.570312 3.375 -3.3125 C 3.351562 -3.050781 3.234375 -2.828125 3.015625 -2.640625 C 2.804688 -2.460938 2.570312 -2.378906 2.3125 -2.390625 C 2.0625 -2.410156 1.84375 -2.53125 1.65625 -2.75 L -12.03125 -18.359375 C -12.21875 -18.566406 -12.300781 -18.800781 -12.28125 -19.0625 C -12.269531 -19.320312 -12.160156 -19.539062 -11.953125 -19.71875 Z M 1.234375 -16.359375 C 2.179688 -17.179688 2.644531 -18.191406 2.625 -19.390625 C 2.613281 -20.585938 2.15625 -21.695312 1.25 -22.71875 C 0.363281 -23.726562 -0.644531 -24.289062 -1.78125 -24.40625 C -2.914062 -24.53125 -3.957031 -24.179688 -4.90625 -23.359375 L -9.9375 -18.9375 L -3.796875 -11.9375 Z M 1.234375 -16.359375 "/></g></g></g><g fill="#000000" fill-opacity="1"><g transform="translate(588.84241, 592.589445)"><g><path d="M 6.296875 -6.6875 C 5.265625 -5.519531 4.160156 -4.65625 2.984375 -4.09375 C 1.804688 -3.539062 0.429688 -3.203125 -1.140625 -3.078125 C -1.484375 -3.023438 -1.769531 -3.097656 -2 -3.296875 C -2.195312 -3.460938 -2.304688 -3.691406 -2.328125 -3.984375 C -2.347656 -4.285156 -2.269531 -4.535156 -2.09375 -4.734375 C -1.925781 -4.921875 -1.691406 -5.023438 -1.390625 -5.046875 C 1.117188 -5.097656 3.207031 -6.078125 4.875 -7.984375 C 5.894531 -9.148438 6.460938 -10.359375 6.578125 -11.609375 C 6.703125 -12.867188 6.316406 -13.890625 5.421875 -14.671875 C 4.722656 -15.285156 3.976562 -15.601562 3.1875 -15.625 C 2.394531 -15.65625 1.582031 -15.488281 0.75 -15.125 C -0.0820312 -14.757812 -1.082031 -14.234375 -2.25 -13.546875 C -3.445312 -12.785156 -4.546875 -12.210938 -5.546875 -11.828125 C -6.554688 -11.441406 -7.5625 -11.300781 -8.5625 -11.40625 C -9.570312 -11.519531 -10.554688 -12 -11.515625 -12.84375 C -12.367188 -13.59375 -12.925781 -14.488281 -13.1875 -15.53125 C -13.457031 -16.582031 -13.414062 -17.695312 -13.0625 -18.875 C -12.71875 -20.050781 -12.066406 -21.179688 -11.109375 -22.265625 C -10.242188 -23.265625 -9.257812 -24.050781 -8.15625 -24.625 C -7.0625 -25.207031 -5.984375 -25.488281 -4.921875 -25.46875 C -4.421875 -25.46875 -4.078125 -25.378906 -3.890625 -25.203125 C -3.703125 -25.046875 -3.597656 -24.816406 -3.578125 -24.515625 C -3.566406 -24.222656 -3.648438 -23.976562 -3.828125 -23.78125 C -3.972656 -23.625 -4.148438 -23.539062 -4.359375 -23.53125 C -5.265625 -23.539062 -6.203125 -23.320312 -7.171875 -22.875 C -8.140625 -22.425781 -8.972656 -21.800781 -9.671875 -21 C -10.710938 -19.820312 -11.296875 -18.628906 -11.421875 -17.421875 C -11.546875 -16.210938 -11.148438 -15.203125 -10.234375 -14.390625 C -9.285156 -13.566406 -8.25 -13.289062 -7.125 -13.5625 C -6 -13.832031 -4.644531 -14.453125 -3.0625 -15.421875 C -1.695312 -16.285156 -0.515625 -16.925781 0.484375 -17.34375 C 1.484375 -17.757812 2.515625 -17.910156 3.578125 -17.796875 C 4.640625 -17.679688 5.707031 -17.15625 6.78125 -16.21875 C 7.613281 -15.488281 8.15625 -14.585938 8.40625 -13.515625 C 8.664062 -12.453125 8.617188 -11.320312 8.265625 -10.125 C 7.910156 -8.925781 7.253906 -7.78125 6.296875 -6.6875 Z M 6.296875 -6.6875 "/></g></g></g><g fill="#000000" fill-opacity="1"><g transform="translate(609.682044, 567.348814)"><g><path d="M -8.421875 -26.75 C -8.296875 -26.664062 -8.160156 -26.5 -8.015625 -26.25 L -3.75 -14.6875 L 4.8125 -8.953125 C 5.050781 -8.796875 5.191406 -8.582031 5.234375 -8.3125 C 5.273438 -8.050781 5.21875 -7.804688 5.0625 -7.578125 C 4.90625 -7.335938 4.703125 -7.191406 4.453125 -7.140625 C 4.203125 -7.085938 3.957031 -7.140625 3.71875 -7.296875 L -4.828125 -13.015625 L -17.125 -12.515625 C -17.375 -12.460938 -17.609375 -12.507812 -17.828125 -12.65625 C -18.046875 -12.789062 -18.175781 -13.003906 -18.21875 -13.296875 C -18.257812 -13.597656 -18.207031 -13.859375 -18.0625 -14.078125 C -17.875 -14.367188 -17.59375 -14.503906 -17.21875 -14.484375 L -5.890625 -15 L -9.84375 -25.515625 C -9.976562 -25.890625 -9.953125 -26.210938 -9.765625 -26.484375 C -9.617188 -26.703125 -9.40625 -26.832031 -9.125 -26.875 C -8.851562 -26.914062 -8.617188 -26.875 -8.421875 -26.75 Z M -8.421875 -26.75 "/></g></g></g></svg>